<?xml version="1.0" encoding="UTF-8"?>
<svg id="Layer_1" xmlns="http://www.w3.org/2000/svg" version="1.1" viewBox="0 0 612.49 431.61">
  <!-- Generator: Adobe Illustrator 29.8.2, SVG Export Plug-In . SVG Version: 2.1.1 Build 3)  -->
  <defs>
    <style>
      .st0 {
        fill: #b18039;
      }
    </style>
  </defs>
  <g>
    <path class="st0" d="M49.5,281.37c-1.68,2.92-4.31,4.38-7.91,4.38-1.78,0-3.54-.59-5.29-1.76v-.4c3.36,0,5.51-1.71,6.45-5.14.2-.77.3-1.39.3-1.86,0-2.32-.55-4.03-1.66-5.14-1.11-1.11-2.58-1.66-4.43-1.66h-2.27v25.08c.03,1.07.49,1.85,1.36,2.32.4.24.86.35,1.36.35h.6v.5h-13.9v-.5h.6c.74,0,1.37-.25,1.89-.76.52-.5.78-1.12.78-1.86v-23.92c0-.77-.26-1.41-.78-1.91s-1.17-.76-1.94-.76h-.6v-.5h14.91c3.86,0,6.75.77,8.66,2.32,2.05,1.58,3.07,3.74,3.07,6.5,0,1.75-.4,3.32-1.21,4.73Z"/>
    <path class="st0" d="M66.07,269.89h-1.61v24.98c0,.81.28,1.45.83,1.94.55.49,1.18.73,1.89.73h.55v.5h-13.85v-.5h.6c.74,0,1.37-.25,1.89-.76.52-.5.78-1.12.78-1.86v-23.97c0-.74-.26-1.36-.78-1.86-.52-.5-1.13-.76-1.84-.76h-.66v-.5h15.46c3.02,0,5.56.59,7.6,1.76,2.28,1.31,3.42,3.48,3.42,6.5,0,1.95-.59,3.7-1.76,5.26-1.18,1.56-2.92,2.51-5.24,2.85.91.3,1.8.87,2.69,1.71.89.84,1.6,1.7,2.14,2.57,1.07,1.91,2.2,3.67,3.37,5.26,1.17,1.59,2.12,2.63,2.85,3.1.72.47,1.6.71,2.64.71v.5h-4.23c-2.79,0-4.93-.33-6.42-1.01-1.49-.67-2.83-1.95-4-3.83-1.81-2.89-2.94-5.17-3.37-6.85-.4-1.01-.88-1.76-1.44-2.27s-1.08-.79-1.59-.86v-.4h1.26c2.85-.03,4.6-1.71,5.24-5.04.13-.5.2-.94.2-1.31s-.02-.88-.05-1.54c-.03-.65-.24-1.39-.63-2.22-.39-.82-.88-1.42-1.49-1.79-1.04-.64-2.12-.97-3.22-1.01-.37-.03-.79-.05-1.26-.05Z"/>
    <path class="st0" d="M110.34,298.04h-23.72v-.5h.6c.77,0,1.42-.25,1.94-.76.52-.5.8-1.12.83-1.86v-23.97c-.03-.74-.31-1.36-.83-1.86s-1.17-.76-1.94-.76h-.6v-.5h17.73c.91,0,1.9-.08,2.97-.25,1.07-.17,1.83-.34,2.27-.5v8.01h-.5v-.45c0-1.48-.4-2.64-1.21-3.48-.81-.84-1.93-1.28-3.37-1.31h-7.25v12.24h5.74c1.14-.03,2.06-.42,2.77-1.16.71-.74,1.06-1.68,1.06-2.82v-.35h.5v10.68h-.5v-.35c0-1.58-.59-2.72-1.76-3.42-.6-.37-1.28-.55-2.01-.55h-5.79v11.94h6.04c2.08-.03,3.85-.68,5.31-1.94,1.46-1.26,2.53-3.03,3.2-5.31h.45l-1.91,9.27Z"/>
    <path class="st0" d="M156.51,297.53h.71v.5h-14v-.5h.71c.64,0,1.1-.22,1.38-.65.29-.44.39-.89.33-1.36l-1.96-14.4-8.01,12.74c-1.21,1.91-1.81,3.63-1.81,5.14h-.45l-11.63-17.63-1.71,14.15c-.07.47.05.92.35,1.36.3.44.75.65,1.36.65h.71v.5h-9.57v-.5h.71c.84,0,1.57-.24,2.19-.73.62-.49.98-1.15,1.08-1.99l3.93-27.65h.4l14.25,21.3,13.34-21.3h.45l4.03,27.9c.17.77.55,1.38,1.16,1.81.6.44,1.29.65,2.06.65Z"/>
    <path class="st0" d="M158.43,297.53h.6c.81,0,1.49-.26,2.06-.78.57-.52.86-1.15.86-1.89v-23.87c0-.74-.29-1.37-.86-1.89-.57-.52-1.26-.78-2.06-.78h-.6v-.5h14.3v.5h-.6c-.77,0-1.44.25-2.01.76-.57.5-.87,1.12-.91,1.86v23.92c.03.77.33,1.41.91,1.91.57.5,1.24.76,2.01.76h.6v.5h-14.3v-.5Z"/>
    <path class="st0" d="M199.57,298.04h-23.72v-.5h.6c.77,0,1.42-.25,1.94-.76.52-.5.8-1.12.83-1.86v-23.97c-.03-.74-.31-1.36-.83-1.86s-1.17-.76-1.94-.76h-.6v-.5h17.73c.91,0,1.9-.08,2.97-.25,1.07-.17,1.83-.34,2.27-.5v8.01h-.5v-.45c0-1.48-.4-2.64-1.21-3.48-.81-.84-1.93-1.28-3.37-1.31h-7.25v12.24h5.74c1.14-.03,2.06-.42,2.77-1.16.71-.74,1.06-1.68,1.06-2.82v-.35h.5v10.68h-.5v-.35c0-1.58-.59-2.72-1.76-3.42-.6-.37-1.28-.55-2.01-.55h-5.79v11.94h6.04c2.08-.03,3.85-.68,5.31-1.94,1.46-1.26,2.53-3.03,3.2-5.31h.45l-1.91,9.27Z"/>
    <path class="st0" d="M216.54,269.89h-1.61v24.98c0,.81.28,1.45.83,1.94.55.49,1.18.73,1.89.73h.55v.5h-13.85v-.5h.6c.74,0,1.37-.25,1.89-.76.52-.5.78-1.12.78-1.86v-23.97c0-.74-.26-1.36-.78-1.86-.52-.5-1.13-.76-1.84-.76h-.66v-.5h15.46c3.02,0,5.56.59,7.6,1.76,2.28,1.31,3.42,3.48,3.42,6.5,0,1.95-.59,3.7-1.76,5.26-1.18,1.56-2.92,2.51-5.24,2.85.91.3,1.8.87,2.69,1.71.89.84,1.6,1.7,2.14,2.57,1.07,1.91,2.2,3.67,3.37,5.26,1.17,1.59,2.12,2.63,2.85,3.1.72.47,1.6.71,2.64.71v.5h-4.23c-2.79,0-4.93-.33-6.42-1.01-1.49-.67-2.83-1.95-4-3.83-1.81-2.89-2.94-5.17-3.37-6.85-.4-1.01-.88-1.76-1.44-2.27s-1.08-.79-1.59-.86v-.4h1.26c2.85-.03,4.6-1.71,5.24-5.04.13-.5.2-.94.2-1.31s-.02-.88-.05-1.54c-.03-.65-.24-1.39-.63-2.22-.39-.82-.88-1.42-1.49-1.79-1.04-.64-2.12-.97-3.22-1.01-.37-.03-.79-.05-1.26-.05Z"/>
    <path class="st0" d="M281.5,297.53h.4v.5h-14.81v-.5h.4c.67,0,1.16-.2,1.46-.6.3-.4.45-.77.45-1.11s-.07-.69-.2-1.06l-1.96-4.63h-10.68l-2.01,4.68c-.13.34-.2.68-.2,1.03s.16.72.48,1.11c.32.39.81.58,1.49.58h.4v.5h-10.07v-.5h.4c.71,0,1.41-.22,2.12-.65.71-.44,1.28-1.09,1.71-1.96l10.42-22.36c1.48-3.32,2.25-5.37,2.32-6.14h.45l13.5,28.3c.44.97,1.02,1.69,1.74,2.14.72.45,1.45.68,2.19.68ZM257.43,288.17h8.96l-4.43-10.52-4.53,10.52Z"/>
    <path class="st0" d="M282.11,297.53h.6c.81,0,1.49-.26,2.06-.78.57-.52.86-1.15.86-1.89v-23.87c0-.74-.29-1.37-.86-1.89-.57-.52-1.26-.78-2.06-.78h-.6v-.5h14.3v.5h-.6c-.77,0-1.44.25-2.01.76-.57.5-.87,1.12-.91,1.86v23.92c.03.77.33,1.41.91,1.91.57.5,1.24.76,2.01.76h.6v.5h-14.3v-.5Z"/>
    <path class="st0" d="M312.07,269.89h-1.61v24.98c0,.81.28,1.45.83,1.94.55.49,1.18.73,1.89.73h.55v.5h-13.85v-.5h.6c.74,0,1.37-.25,1.89-.76.52-.5.78-1.12.78-1.86v-23.97c0-.74-.26-1.36-.78-1.86-.52-.5-1.13-.76-1.84-.76h-.66v-.5h15.46c3.02,0,5.56.59,7.6,1.76,2.28,1.31,3.42,3.48,3.42,6.5,0,1.95-.59,3.7-1.76,5.26-1.18,1.56-2.92,2.51-5.24,2.85.91.3,1.8.87,2.69,1.71.89.84,1.6,1.7,2.14,2.57,1.07,1.91,2.2,3.67,3.37,5.26,1.17,1.59,2.12,2.63,2.85,3.1.72.47,1.6.71,2.64.71v.5h-4.23c-2.79,0-4.93-.33-6.42-1.01-1.49-.67-2.83-1.95-4-3.83-1.81-2.89-2.94-5.17-3.37-6.85-.4-1.01-.88-1.76-1.44-2.27s-1.08-.79-1.59-.86v-.4h1.26c2.85-.03,4.6-1.71,5.24-5.04.13-.5.2-.94.2-1.31s-.02-.88-.05-1.54c-.03-.65-.24-1.39-.63-2.22-.39-.82-.88-1.42-1.49-1.79-1.04-.64-2.12-.97-3.22-1.01-.37-.03-.79-.05-1.26-.05Z"/>
    <path class="st0" d="M358.05,281.37c-1.68,2.92-4.31,4.38-7.91,4.38-1.78,0-3.54-.59-5.29-1.76v-.4c3.36,0,5.51-1.71,6.45-5.14.2-.77.3-1.39.3-1.86,0-2.32-.55-4.03-1.66-5.14-1.11-1.11-2.58-1.66-4.43-1.66h-2.27v25.08c.03,1.07.49,1.85,1.36,2.32.4.24.86.35,1.36.35h.6v.5h-13.9v-.5h.6c.74,0,1.37-.25,1.89-.76.52-.5.78-1.12.78-1.86v-23.92c0-.77-.26-1.41-.78-1.91s-1.17-.76-1.94-.76h-.6v-.5h14.91c3.86,0,6.75.77,8.66,2.32,2.05,1.58,3.07,3.74,3.07,6.5,0,1.75-.4,3.32-1.21,4.73Z"/>
    <path class="st0" d="M362.83,282.93c0-4.83,1.62-8.67,4.86-11.51,3.24-2.84,7.55-4.26,12.94-4.26s9.71,1.42,12.97,4.26c3.26,2.84,4.88,6.67,4.88,11.51s-1.63,8.67-4.88,11.51c-3.26,2.84-7.57,4.26-12.94,4.26s-9.69-1.42-12.94-4.26c-3.26-2.84-4.88-6.67-4.88-11.51ZM370.54,282.93c0,4.23.91,7.58,2.74,10.05,1.83,2.47,4.28,3.7,7.35,3.7s5.52-1.23,7.35-3.7c1.83-2.47,2.74-5.82,2.74-10.05s-.92-7.58-2.74-10.05c-1.83-2.47-4.28-3.7-7.35-3.7s-5.52,1.23-7.35,3.7c-1.83,2.47-2.74,5.82-2.74,10.05Z"/>
    <path class="st0" d="M413.84,269.89h-1.61v24.98c0,.81.28,1.45.83,1.94.55.49,1.18.73,1.89.73h.55v.5h-13.85v-.5h.6c.74,0,1.37-.25,1.89-.76.52-.5.78-1.12.78-1.86v-23.97c0-.74-.26-1.36-.78-1.86-.52-.5-1.13-.76-1.84-.76h-.66v-.5h15.46c3.02,0,5.56.59,7.6,1.76,2.28,1.31,3.42,3.48,3.42,6.5,0,1.95-.59,3.7-1.76,5.26-1.18,1.56-2.92,2.51-5.24,2.85.91.3,1.8.87,2.69,1.71.89.84,1.6,1.7,2.14,2.57,1.07,1.91,2.2,3.67,3.37,5.26,1.17,1.59,2.12,2.63,2.85,3.1.72.47,1.6.71,2.64.71v.5h-4.23c-2.79,0-4.93-.33-6.42-1.01-1.49-.67-2.83-1.95-4-3.83-1.81-2.89-2.94-5.17-3.37-6.85-.4-1.01-.88-1.76-1.44-2.27s-1.08-.79-1.59-.86v-.4h1.26c2.85-.03,4.6-1.71,5.24-5.04.13-.5.2-.94.2-1.31s-.02-.88-.05-1.54c-.03-.65-.24-1.39-.63-2.22-.39-.82-.88-1.42-1.49-1.79-1.04-.64-2.12-.97-3.22-1.01-.37-.03-.79-.05-1.26-.05Z"/>
    <path class="st0" d="M460.83,274.97v-.45c0-1.44-.4-2.58-1.21-3.42-.81-.84-1.93-1.28-3.37-1.31h-5.84v25.13c.03.74.32,1.36.86,1.86.54.5,1.17.76,1.91.76h.55v.5h-13.9v-.5h.5c.77,0,1.43-.25,1.96-.76.54-.5.81-1.14.81-1.91v-25.08h-5.79c-1.48.03-2.62.47-3.42,1.31-.81.84-1.21,1.98-1.21,3.42v.45h-.5v-7.96c.47.17,1.25.34,2.34.5,1.09.17,2.07.25,2.95.25h18.58c1.48,0,2.69-.11,3.65-.33.96-.22,1.5-.36,1.64-.43v7.96h-.5Z"/>
    <path class="st0" d="M476.14,298.04v-.5h.6c.77,0,1.42-.25,1.94-.76.52-.5.78-1.12.78-1.86v-23.92c0-.74-.27-1.37-.81-1.89-.54-.52-1.18-.78-1.91-.78h-.6v-.5h14v.5h-.6c-.77,0-1.43.25-1.96.76s-.81,1.14-.81,1.91v25.03h6.04c2.08-.03,3.84-.68,5.29-1.94s2.5-3.03,3.17-5.31h.55l-1.96,9.27h-23.72Z"/>
    <path class="st0" d="M503.28,297.53h.6c.81,0,1.49-.26,2.06-.78.57-.52.86-1.15.86-1.89v-23.87c0-.74-.29-1.37-.86-1.89-.57-.52-1.26-.78-2.06-.78h-.6v-.5h14.3v.5h-.6c-.77,0-1.44.25-2.01.76-.57.5-.87,1.12-.91,1.86v23.92c.03.77.33,1.41.91,1.91.57.5,1.24.76,2.01.76h.6v.5h-14.3v-.5Z"/>
    <path class="st0" d="M562.55,297.53h.71v.5h-14v-.5h.71c.64,0,1.1-.22,1.38-.65.29-.44.39-.89.33-1.36l-1.96-14.4-8.01,12.74c-1.21,1.91-1.81,3.63-1.81,5.14h-.45l-11.63-17.63-1.71,14.15c-.07.47.05.92.35,1.36.3.44.75.65,1.36.65h.71v.5h-9.57v-.5h.71c.84,0,1.57-.24,2.19-.73.62-.49.98-1.15,1.08-1.99l3.93-27.65h.4l14.25,21.3,13.34-21.3h.45l4.03,27.9c.17.77.55,1.38,1.16,1.81.6.44,1.29.65,2.06.65Z"/>
    <path class="st0" d="M564.31,282.93c0-4.83,1.62-8.67,4.86-11.51,3.24-2.84,7.55-4.26,12.94-4.26s9.71,1.42,12.97,4.26c3.26,2.84,4.88,6.67,4.88,11.51s-1.63,8.67-4.88,11.51c-3.26,2.84-7.57,4.26-12.94,4.26s-9.69-1.42-12.94-4.26c-3.26-2.84-4.88-6.67-4.88-11.51ZM572.02,282.93c0,4.23.91,7.58,2.74,10.05,1.83,2.47,4.28,3.7,7.35,3.7s5.52-1.23,7.35-3.7c1.83-2.47,2.74-5.82,2.74-10.05s-.92-7.58-2.74-10.05c-1.83-2.47-4.28-3.7-7.35-3.7s-5.52,1.23-7.35,3.7c-1.83,2.47-2.74,5.82-2.74,10.05Z"/>
  </g>
  <path class="st0" d="M303.29,90.44l30,62.72s-14.18-2.18-27.27-2.45l-9.27-19.63-33.81,75.53-20.45,3.54,60.81-119.71Z"/>
  <path class="st0" d="M333.29,214.6l26.36-6.54s10.18,44.36,38.18,46.9v2.36h-51.26v-3.09s4.73.73,4-3.64l-17.27-35.99Z"/>
  <polygon class="st0" points="277.66 185.88 280.39 190.79 312.02 188.34 277.66 185.88"/>
  <path class="st0" d="M498.37,221.69c3.11-2-.2-5.49-.2-5.49,5.45-30.39-104.35-33.6-104.35-33.6-47.99-31.99-103.62-27.63-103.62-27.63l-2.32,5.82c60.58-.36,91.03,24,91.03,24-27.9-.28-48.15,7.3-55.85,10.72-4.66,2.07-9.37,4.07-14.15,5.85-86.5,32.2-119.42,1.97-119.42,1.97,9.73,22.63,44.27,26.18,44.27,26.18-6.27,27.27-30.27,24.27-30.27,24.27l-.82,3.54h55.9l.27-3c-13.36.27-13.09-5.45-13.09-5.45l6.82-20.45c28.65,0,86.68-18.28,103.72-23.85,4.05-1.33,8.13-2.55,12.27-3.55,31.94-7.71,56.83-5.46,72.39-2.07,8.94,1.95,17.37,5.69,25.08,10.63,17.3,11.08,28.5,9.21,28.5,9.21,2.18,0,2.18,2,2.18,2-1.64,2.36-2,18-2,18-1.27,3.45-26.72,6.91-26.72,6.91,5.27.36,25.81,0,25.81,0,9.09-2,4.36-10,4.36-10-1.64-3.64.2-14,.2-14ZM466.54,201.88s18.91-5.09,26.54,12.36c0,0-11.63,1.45-26.54-12.36Z"/>
  <path class="st0" d="M412.37,227.33s7.58-17.97,23.82-19.58c.12-.01.24-.02.37-.03,2.26-.11,23.79-.58,29.99,22.15,0,0-3.47-13.63-20.85-16.75-7.95-1.42-16.14.54-22.79,5.12-3.24,2.23-6.94,5.22-10.54,9.08Z"/>
  <path class="st0" d="M143.19,227.33s7.58-17.97,23.82-19.58c.12-.01.24-.02.37-.03,2.26-.11,23.79-.58,29.99,22.15,0,0-3.47-13.63-20.85-16.75-7.95-1.42-16.14.54-22.79,5.12-3.24,2.23-6.94,5.22-10.54,9.08Z"/>
  <path class="st0" d="M262.94,154.78l-3,7.38s-51.26-4.91-77.99,23.72h63.54l-3,4.91-107.98,3-13.91,12.26h-6.82s-21.81,28.37,27,35.46c0,0-45.81,7.09-35.72-31.36,0,0,3.54-5.78,5.18-11.75,0,0,2.73-12.25,7.36-12.52,0,0,24.19-1.64,25.59-2.73,0,0,65.76-33.3,119.75-28.38Z"/>
</svg>