<?xml version="1.0" encoding="UTF-8"?>
<svg id="Layer_1" xmlns="http://www.w3.org/2000/svg" version="1.1" viewBox="0 0 612.49 431.61">
  <!-- Generator: Adobe Illustrator 29.8.2, SVG Export Plug-In . SVG Version: 2.1.1 Build 3)  -->
  <defs>
    <style>
      .st0 {
        stroke-width: .5px;
      }

      .st0, .st1 {
        stroke: #fff;
        stroke-miterlimit: 10;
      }

      .st0, .st2 {
        fill: #b18039;
      }

      .st1 {
        fill: none;
      }
    </style>
  </defs>
  <path class="st1" d="M290.72,139.74s9.79-9.13,14.77-8.96c0,0,.47-.03,1.18.05,6.84.78,5.74,11.2-1.12,10.61-.13-.01-.26-.02-.39-.04,0,0-9.48-2.81-14.44-1.66Z"/>
  <path class="st2" d="M456.16,138.34c-23.57-.33-31.87,9.63-31.87,9.63-15.27-20.58-45.49-24.24-45.49-24.24l3.65-23.91c-4.98,11.29-14.28,22.25-14.28,22.25-54.45-11.29-123.18-7.3-123.18-7.3-22.91,3.65-57.11,26.23-57.11,26.23-19.59-1.99-68.06,16.93-68.06,16.93l1.66,14.94-6.64-3.65c-10.29,34.53,5.31,35.53,5.31,35.53v-2.99l49.14,1.33,3.65,5.11,14.94-.13c26.56,1,28.22-3.98,28.22-3.98-.18-17.66,4.72-28.09,9.34-33.98,4.2-5.36,10.68-8.6,17.49-8.69,23.63-.3,19.65,37.69,19.65,37.69h72.38l71.72-5.64c1.76-16.79,5.81-24.05,8.85-27.18,2.34-2.41,6.2-2.91,8.85-.84,7.07,5.5,7.53,23.71,7.53,23.71l9.63-5.98v-13.61h-8.63c2.32-2.66,9.96-2.99,9.96-2.99,12.28-3.32,11.29-8.96,11.29-8.96,6.97-2.66,7.64-9.63,7.64-9.63,6.97-1.99,8.3-15.94,8.3-15.94-1.99,5.98-13.94,6.31-13.94,6.31ZM317.05,118.09s6.64,21.25,5.64,26.56h-51.79l25.23-26.56h20.92ZM244,118.09h42.83l-24.24,22.25h-64.74c6.64-8.3,46.15-22.25,46.15-22.25ZM126.47,160.59h44.49s-4.98,17.26-25.23,17.93c0,0-21.25,1.33-19.26-17.93ZM186.57,198.11l-58.85-1.62c-3.38-.09-6.68-1.63-9-4.46-1.35-1.65-2.15-3.68-2.49-5.78l-.71-4.4.04.03c6.1,4.26,13.25,6.78,20.67,7.3l9.17.64,57.11-2.66s-5.31,10.29-15.94,10.96ZM173.29,172.54s14.4-16.19,44.82-13.28c0,0-4.32,15.94-44.82,13.28ZM184.91,154.01s48.14-10.69,65.74-7.37l-65.74,7.37ZM273.44,192.46v-22.36l3.54,19.04,107.79-.22-111.34,3.54ZM262.6,157.93l2.66,8.85s-9.08-12.48-16.82-12.77l152.95-2.28-138.78,6.2ZM336.08,146c.44-3.96-9.96-25.26-9.96-25.26,23.02.22,65.3,10.62,65.3,10.62l11.07,14.64h-66.4ZM407.8,146l-10.18-12.63,15.94,12.63h-5.76Z"/>
  <path class="st0" d="M296.58,215.12l161.09-12.51-33.2-.55c3.21-1.22,4.43-7.53,4.43-7.53,2.1-28.77-10.18-27.11-10.18-27.11-9.74,6.86-10.29,28.77-10.29,28.77h-5.42c-.11,2.4,2.32,4.98,2.32,4.98l-76.47,3.32c50.25-40.84,54.01-109.23,54.01-109.23-20.58,64.08-123.84,110.23-123.84,110.23v-16.05c-.13-10.03-3.45-15.78-7.33-19.08-7.23-6.14-18.22-4.22-23.69,3.53-8.86,12.55-7.82,34.6-7.82,34.6-2.32,6.97-56.11,3.65-56.11,3.65l2.66-5.98-36.19-1.33,6.31,7.3,2.82,2.16-25.9.33c15.41,12.8,114.83,6.85,148.39,4.44,10.18-.73,20.09-3.59,29.07-8.45,36.78-19.93,68.4-62.23,68.4-62.23-6.64,22.34-63.03,66.74-63.03,66.74ZM424.66,192.46l-3.49-5.73,4.01-2.66s.8,5.06-.53,8.38ZM425.16,179.76l-4.98,2.08-.33-9s5.81,2.69,5.31,6.92ZM422.51,196.28c-1.23,2.08-5.91,1.24-5.91,1.24l2.08-9.25,3.83,8.01ZM417.52,172.84l.58,9-3.74-3.24s1.41-5.3,3.15-5.76ZM413.53,183.33l4.57,3.15-4.57,5.06s-1.33-7.06,0-8.22ZM238.56,172.84v15.97l-9.13-5.64,9.13-10.33ZM229.43,191.47l8.13,2.32-6.47,11.29-1.66-13.61ZM236.57,210.22l3.32-12.95,7.72,11.95c-4.73,3.65-11.04,1-11.04,1ZM251.51,204.22l-7.64-9.93,8.63-5.48-1,15.41ZM242.71,188.81l.66-15.97,9.13,9-9.79,6.97Z"/>
  <path class="st2" d="M372.22,97.53l7.29,1.22,7.56,5.76-2.04-7.68,4.97-9.58,14.35,10.29-8.87-18.45,3.56-8.72c1.07-2.63.98-5.58-.25-8.14h0c-.44-.92-1.55-1.31-2.47-.87l-.15.07c-1.84.88-3.36,2.3-4.37,4.07l-5.24,9.21-21.34,8.24,19.19,1.82-3.9,7.59-8.28,5.15Z"/>
  <g>
    <path class="st2" d="M140.83,253.71c0,2.82-.55,5.49-1.66,8.01-2.09,4.85-5.95,8.16-11.6,9.94-1.66.55-3.19.83-4.6.83-4.36,0-8.25-1.13-11.69-3.41v-.92c4.6.12,8.32-1.38,11.14-4.51,2.45-2.7,3.68-6.23,3.68-10.59s-1.06-7.84-3.18-10.26c-2.12-2.42-4.99-3.64-8.61-3.64h-6.17v53.85c0,1.6.58,2.96,1.75,4.1,1.17,1.14,2.55,1.7,4.14,1.7h1.2v.92h-27.99v-.92h1.2c1.6,0,2.96-.57,4.1-1.7,1.13-1.13,1.73-2.5,1.79-4.1v-51.46c0-1.53-.58-2.81-1.75-3.82-1.17-1.01-2.55-1.52-4.14-1.52h-1.2v-.92h30.75c7.49,0,13.13,1.6,16.94,4.79,3.93,3.38,5.89,7.92,5.89,13.62Z"/>
    <path class="st2" d="M172.49,239.35h-4.23v53.67c.06,1.6.66,2.96,1.79,4.1,1.13,1.14,2.5,1.7,4.1,1.7h1.2v.92h-27.99v-.92h1.2c2.21,0,3.9-.95,5.06-2.85.49-.86.77-1.81.83-2.85v-51.09c-.06-1.59-.66-2.96-1.79-4.1-1.14-1.13-2.5-1.7-4.1-1.7h-1.2v-.92h31.58c5.95,0,10.98,1.29,15.1,3.87,2.09,1.29,3.74,3.08,4.97,5.39,1.23,2.3,1.84,5.31,1.84,9.02s-1.29,7.29-3.87,10.72c-2.58,3.44-6.32,5.4-11.23,5.89,3.56,1.17,6.69,3.87,9.39,8.1,6.63,10.62,11.54,16.94,14.73,18.96,1.59.98,3.59,1.5,5.98,1.56v.92h-9.02c-5.34,0-9.77-.7-13.3-2.12-3.53-1.41-6.31-3.9-8.33-7.46-1.17-2.03-3.71-7.27-7.64-15.74-1.72-3.74-3.81-5.8-6.26-6.17v-.92h2.85c2.76,0,5.2-.83,7.32-2.49,2.12-1.66,3.54-4.36,4.28-8.1.24-1.29.37-2.3.37-3.04,0-5.03-1.01-8.67-3.04-10.91-2.03-2.24-4.63-3.39-7.83-3.45h-2.76Z"/>
    <path class="st2" d="M215.94,298.81c1.59,0,2.96-.57,4.1-1.7,1.14-1.13,1.73-2.5,1.8-4.1v-51.27c-.12-1.6-.58-2.76-1.38-3.5-1.47-1.35-2.98-2.03-4.51-2.03h-1.2v-.92h35.26c3.01,0,5.49-.23,7.46-.69,1.96-.46,3.16-.78,3.59-.97v16.11l-.92-.09v-1.01c0-3.8-1.41-6.5-4.23-8.1-1.35-.8-2.95-1.23-4.79-1.29h-15.47v26.79h12.15c2.27-.06,4.14-.84,5.62-2.35,1.47-1.5,2.21-3.36,2.21-5.57v-.83h.92v21.27h-.92v-.74c0-2.27-.72-4.14-2.16-5.62-1.44-1.47-3.27-2.24-5.48-2.3h-12.34v25.87h12.06c4.48,0,8.24-1.29,11.28-3.87,3.04-2.58,5.29-6.23,6.77-10.95h.92l-4.23,18.78h-47.69v-.92h1.2Z"/>
    <path class="st2" d="M356.14,298.81h1.47v.92h-27.62v-.83h1.38c1.04-.06,1.93-.49,2.67-1.29.74-.8,1.04-1.69.92-2.67l-3.59-33.42-17.31,29.83c-2.27,3.81-3.44,7.21-3.5,10.22h-.92l-23.66-39.77-3.59,33.14c-.12.98.18,1.89.92,2.72s1.63,1.24,2.67,1.24h1.38v.83h-19.24v-.92h1.47c1.72,0,3.21-.52,4.46-1.56,1.26-1.04,2.01-2.45,2.25-4.23l7.64-59.01h.83l28.54,46.95,27.43-46.95h.83l7.83,59.01c.31,1.78,1.09,3.19,2.35,4.23,1.26,1.04,2.71,1.56,4.37,1.56Z"/>
    <path class="st2" d="M361.76,298.81c1.59,0,2.96-.57,4.1-1.7,1.14-1.13,1.73-2.5,1.8-4.1v-51.09c-.06-1.6-.66-2.95-1.8-4.05-1.14-1.1-2.5-1.66-4.1-1.66h-1.2v-.92h27.99l-.09.92h-1.11c-1.6,0-2.98.55-4.14,1.66-1.17,1.1-1.75,2.46-1.75,4.05v51.09c0,1.6.58,2.96,1.75,4.1,1.17,1.14,2.55,1.7,4.14,1.7h1.11l.09.92h-27.99v-.92h1.2Z"/>
    <path class="st2" d="M397.29,298.81c1.59,0,2.96-.57,4.1-1.7,1.14-1.13,1.73-2.5,1.8-4.1v-51.27c-.12-1.6-.58-2.76-1.38-3.5-1.47-1.35-2.98-2.03-4.51-2.03h-1.2v-.92h35.26c3.01,0,5.49-.23,7.46-.69,1.96-.46,3.16-.78,3.59-.97v16.11l-.92-.09v-1.01c0-3.8-1.41-6.5-4.23-8.1-1.35-.8-2.95-1.23-4.79-1.29h-15.47v26.79h12.15c2.27-.06,4.14-.84,5.62-2.35,1.47-1.5,2.21-3.36,2.21-5.57v-.83h.92v21.27h-.92v-.74c0-2.27-.72-4.14-2.16-5.62-1.44-1.47-3.27-2.24-5.48-2.3h-12.34v25.87h12.06c4.48,0,8.24-1.29,11.28-3.87,3.04-2.58,5.29-6.23,6.77-10.95h.92l-4.23,18.78h-47.69v-.92h1.2Z"/>
    <path class="st2" d="M479.22,239.35h-4.23v53.67c.06,1.6.66,2.96,1.79,4.1,1.13,1.14,2.5,1.7,4.1,1.7h1.2v.92h-27.99v-.92h1.2c2.21,0,3.9-.95,5.06-2.85.49-.86.77-1.81.83-2.85v-51.09c-.06-1.59-.66-2.96-1.79-4.1-1.14-1.13-2.5-1.7-4.1-1.7h-1.2v-.92h31.58c5.95,0,10.98,1.29,15.1,3.87,2.09,1.29,3.74,3.08,4.97,5.39,1.23,2.3,1.84,5.31,1.84,9.02s-1.29,7.29-3.87,10.72c-2.58,3.44-6.32,5.4-11.23,5.89,3.56,1.17,6.69,3.87,9.39,8.1,6.63,10.62,11.54,16.94,14.73,18.96,1.59.98,3.59,1.5,5.98,1.56v.92h-9.02c-5.34,0-9.77-.7-13.3-2.12-3.53-1.41-6.31-3.9-8.33-7.46-1.17-2.03-3.71-7.27-7.64-15.74-1.72-3.74-3.81-5.8-6.26-6.17v-.92h2.85c2.76,0,5.2-.83,7.32-2.49,2.12-1.66,3.54-4.36,4.28-8.1.24-1.29.37-2.3.37-3.04,0-5.03-1.01-8.67-3.04-10.91-2.03-2.24-4.63-3.39-7.83-3.45h-2.76Z"/>
  </g>
  <g>
    <path class="st2" d="M88.74,343.03c.47,0,.87-.17,1.2-.5.33-.33.51-.73.53-1.2v-14.99c-.02-.47-.19-.87-.53-1.2-.33-.33-.74-.5-1.2-.5h-.35v-.27h8.22l-.03.27h-.32c-.47,0-.88.17-1.22.5-.34.33-.51.73-.51,1.2v15.8h3.54c1.32,0,2.42-.38,3.31-1.14.89-.76,1.56-1.83,1.99-3.22h.27l-1.24,5.52h-14.01v-.27h.35Z"/>
    <path class="st2" d="M105.24,343.03c.47,0,.87-.17,1.2-.5.33-.33.51-.73.53-1.2v-15.02c-.02-.47-.19-.87-.53-1.19-.33-.32-.74-.49-1.2-.49h-.35v-.27h8.22l-.03.27h-.32c-.47,0-.88.16-1.22.49s-.51.72-.51,1.19v15.02c0,.47.17.87.51,1.2.34.33.75.5,1.22.5h.32l.03.27h-8.22v-.27h.35Z"/>
    <path class="st2" d="M139.82,343.03h.43v.27h-8.12v-.24h.41c.31-.02.57-.14.78-.38s.31-.5.27-.78l-1.05-9.82-5.09,8.77c-.67,1.12-1.01,2.12-1.03,3h-.27l-6.95-11.69-1.05,9.74c-.04.29.05.55.27.8.22.24.48.37.78.37h.41v.24h-5.65v-.27h.43c.5,0,.94-.15,1.31-.46.37-.31.59-.72.66-1.24l2.25-17.34h.24l8.39,13.8,8.06-13.8h.24l2.3,17.34c.09.52.32.94.69,1.24.37.31.8.46,1.29.46Z"/>
    <path class="st2" d="M143.94,326.64c1.92-1.77,4.51-2.65,7.76-2.65s5.84.88,7.76,2.65c1.92,1.77,2.88,4.17,2.88,7.2s-.96,5.43-2.88,7.2-4.51,2.65-7.76,2.65-5.84-.88-7.76-2.65-2.88-4.17-2.88-7.2.96-5.43,2.88-7.2ZM147.16,340.2c1.11,1.56,2.62,2.34,4.53,2.34s3.43-.78,4.55-2.34c1.12-1.56,1.68-3.68,1.68-6.37s-.56-4.81-1.68-6.37c-1.12-1.56-2.63-2.34-4.55-2.34s-3.42.78-4.53,2.34c-1.11,1.56-1.66,3.68-1.66,6.37s.55,4.81,1.66,6.37Z"/>
    <path class="st2" d="M184.46,324.63h-.46c-.38,0-.7.12-.97.37-.27.24-.42.55-.43.91v10.55c0,2.22-.69,3.98-2.08,5.28-1.39,1.3-3.29,1.95-5.71,1.95-2.85,0-5.03-.64-6.55-1.91-1.52-1.27-2.27-3.03-2.27-5.29v-10.5c-.02-.54-.26-.94-.73-1.19-.22-.11-.45-.16-.7-.16h-.43v-.27h7.79v.27h-.43c-.4,0-.73.12-1,.37-.27.24-.42.55-.43.93v10.34c0,1.91.47,3.43,1.41,4.54.94,1.12,2.23,1.68,3.87,1.68s2.94-.53,3.9-1.58,1.44-2.48,1.46-4.29v-10.69c-.04-.52-.28-.9-.73-1.14-.22-.11-.45-.16-.7-.16h-.43v-.27h5.66v.27Z"/>
    <path class="st2" d="M186.65,340.79c0-1.3.28-2.41.84-3.33h.24c-.02.14-.03.29-.03.43,0,1.24.45,2.33,1.34,3.26.89.93,2.11,1.39,3.67,1.39,1.21,0,2.15-.29,2.83-.87.68-.58,1.01-1.31,1.01-2.19,0-.52-.17-.99-.5-1.41-.33-.41-.89-.87-1.66-1.38l-4.71-3.11c-1.75-1.17-2.62-2.62-2.62-4.33,0-.18.02-.36.05-.54.11-1.42.66-2.57,1.66-3.44,1-.87,2.34-1.3,4.02-1.3.99,0,2.22.09,3.68.27h1.7l-.35,3.98h-.27c0-.94-.35-1.69-1.04-2.26-.7-.57-1.62-.85-2.77-.85-1.41,0-2.43.43-3.06,1.3-.32.42-.49.83-.49,1.24s.08.77.24,1.05c.25.47.8.97,1.65,1.52l5.17,3.35c1.62,1.06,2.44,2.45,2.44,4.17,0,1.91-.65,3.38-1.96,4.4-1.31,1.02-3.04,1.53-5.21,1.53-1.23,0-2.36-.15-3.4-.45-1.04-.3-1.8-.7-2.29-1.2-.13-.34-.19-.76-.19-1.24Z"/>
    <path class="st2" d="M202.26,343.03c.47,0,.87-.17,1.2-.5.33-.33.51-.73.53-1.2v-15.02c-.02-.47-.19-.87-.53-1.19-.33-.32-.74-.49-1.2-.49h-.35v-.27h8.22l-.03.27h-.32c-.47,0-.88.16-1.22.49s-.51.72-.51,1.19v15.02c0,.47.17.87.51,1.2.34.33.75.5,1.22.5h.32l.03.27h-8.22v-.27h.35Z"/>
    <path class="st2" d="M233.32,324.63c-.63,0-1.11.27-1.43.81-.14.23-.23.51-.24.81v13.96c0,1.21.08,2.23.24,3.06l.08.41h-.24l-13.66-13.01v10.74c0,.45.16.83.49,1.15.32.32.71.47,1.16.47h.51v.27h-8.2v-.27h.49c.47,0,.87-.16,1.19-.47.32-.32.49-.71.49-1.18v-14.04c0-1.19-.08-2.18-.24-2.98l-.05-.41h.24l13.66,13.01v-10.69c-.02-.47-.19-.86-.51-1.18-.33-.31-.71-.47-1.16-.47h-.49v-.27h8.2v.27h-.51Z"/>
    <path class="st2" d="M235.67,343.03c.47,0,.87-.17,1.2-.5.33-.33.51-.73.53-1.2v-15.07c-.04-.47-.17-.81-.41-1.03-.43-.4-.88-.6-1.33-.6h-.35v-.27h10.36c.88,0,1.61-.07,2.19-.2.58-.14.93-.23,1.05-.28v4.73l-.27-.03v-.3c0-1.12-.42-1.91-1.24-2.38-.4-.23-.87-.36-1.41-.38h-4.54v7.87h3.57c.67-.02,1.22-.25,1.65-.69.43-.44.65-.99.65-1.64v-.24h.27v6.25h-.27v-.22c0-.67-.21-1.22-.64-1.65-.42-.43-.96-.66-1.61-.68h-3.62v7.6h3.54c1.32,0,2.42-.38,3.31-1.14.89-.76,1.56-1.83,1.99-3.22h.27l-1.24,5.52h-14.01v-.27h.35Z"/>
    <path class="st2" d="M280.96,343.3c-2.07.16-3.42.2-4.03.11-1.44-.25-2.59-.62-3.44-1.11-1.41.85-3.17,1.27-5.3,1.27-3.08,0-5.53-.64-7.33-1.92-.61-.45-1.12-1.04-1.51-1.76-.4-.72-.6-1.48-.6-2.27s.12-1.47.35-2.04c.23-.57.56-1.04.97-1.42.76-.72,1.64-1.25,2.65-1.6-.79-1.24-1.19-2.44-1.19-3.6s.32-2.11.95-2.87c1.21-1.41,3.08-2.11,5.6-2.11,1.14,0,2.2.17,3.19.5.99.33,1.71.81,2.17,1.42l-.97,3.87h-.24c-.02-1.33-.31-2.44-.87-3.33-.56-.88-1.35-1.33-2.38-1.33s-1.83.3-2.39.89c-.57.6-.85,1.37-.85,2.33s.35,1.88,1.04,2.79,2.04,2.22,4.03,3.96c1.99,1.74,3.21,2.79,3.64,3.15.23-.76.35-1.51.35-2.27s-.19-1.52-.55-2.3c-.37-.77-.91-1.16-1.61-1.16h-.43v-.27h6.33v.27h-.41c-.36,0-.6.12-.73.35-.13.23-.19.59-.19,1.06v.46c0,2.06-.39,3.81-1.16,5.25,1.15.99,2.1,1.76,2.84,2.3s1.43.9,2.08,1.08v.3ZM269.19,342.44c1.17,0,2.2-.32,3.08-.97-1.48-1.15-3.08-2.48-4.8-3.96-1.72-1.49-2.96-2.68-3.72-3.58-.49.76-.73,1.64-.73,2.65,0,1.89.62,3.35,1.85,4.36,1.24,1.01,2.67,1.52,4.32,1.52Z"/>
    <path class="st2" d="M306.58,343.03h.24v.27h-8.63v-.27h.24c.4,0,.69-.12.88-.37s.28-.47.28-.69-.04-.43-.13-.65l-1.33-3.33h-6.33l-1.41,3.33c-.09.23-.14.46-.14.66s.1.43.3.68c.2.24.5.37.89.37h.22v.27h-5.79v-.27h.24c.42,0,.83-.13,1.25-.38.41-.25.76-.63,1.03-1.14l6.25-14.15c.85-1.79,1.3-2.97,1.35-3.54h.24l8.04,17.64c.27.52.61.92,1.03,1.18.42.26.84.39,1.27.39ZM292.27,336.86h5.41l-2.62-6.66-2.79,6.66Z"/>
    <path class="st2" d="M307.48,343.03c.47,0,.87-.17,1.2-.5.33-.33.51-.73.53-1.2v-15.02c-.02-.47-.19-.87-.53-1.19-.33-.32-.74-.49-1.2-.49h-.35v-.27h8.22l-.03.27h-.32c-.47,0-.88.16-1.22.49s-.51.72-.51,1.19v15.02c0,.47.17.87.51,1.2.34.33.75.5,1.22.5h.32l.03.27h-8.22v-.27h.35Z"/>
    <path class="st2" d="M325.04,325.55h-1.24v15.77c.02.47.19.87.53,1.2.33.33.73.5,1.2.5h.35v.27h-8.22v-.27h.35c.65,0,1.15-.28,1.49-.84.14-.25.22-.53.24-.84v-15.02c-.02-.47-.19-.87-.53-1.2-.33-.33-.74-.5-1.2-.5h-.35v-.27h9.28c1.75,0,3.23.38,4.44,1.14.61.38,1.1.91,1.46,1.58.36.68.54,1.56.54,2.65s-.38,2.14-1.14,3.15c-.76,1.01-1.86,1.59-3.3,1.73,1.04.34,1.96,1.14,2.76,2.38,1.95,3.12,3.39,4.98,4.33,5.57.47.29,1.06.44,1.76.46v.27h-2.65c-1.57,0-2.87-.21-3.91-.62-1.04-.42-1.85-1.15-2.45-2.19-.34-.6-1.09-2.14-2.25-4.63-.5-1.1-1.12-1.7-1.84-1.81v-.27h.84c.81,0,1.53-.24,2.15-.73s1.04-1.28,1.26-2.38c.07-.38.11-.68.11-.89,0-1.48-.3-2.55-.89-3.21-.59-.66-1.36-1-2.3-1.01h-.81Z"/>
    <path class="st2" d="M353.28,329.77c0,.83-.16,1.61-.49,2.35-.61,1.43-1.75,2.4-3.41,2.92-.49.16-.94.24-1.35.24-1.28,0-2.43-.33-3.44-1v-.27c1.35.04,2.44-.41,3.27-1.33.72-.79,1.08-1.83,1.08-3.11s-.31-2.3-.93-3.02c-.62-.71-1.47-1.07-2.53-1.07h-1.81v15.83c0,.47.17.87.51,1.2.34.33.75.5,1.22.5h.35v.27h-8.22v-.27h.35c.47,0,.87-.17,1.2-.5.33-.33.51-.73.53-1.2v-15.12c0-.45-.17-.83-.51-1.12-.34-.3-.75-.45-1.22-.45h-.35v-.27h9.04c2.2,0,3.86.47,4.98,1.41,1.15.99,1.73,2.33,1.73,4Z"/>
    <path class="st2" d="M358.54,326.64c1.92-1.77,4.51-2.65,7.76-2.65s5.84.88,7.76,2.65c1.92,1.77,2.88,4.17,2.88,7.2s-.96,5.43-2.88,7.2-4.51,2.65-7.76,2.65-5.84-.88-7.76-2.65-2.88-4.17-2.88-7.2.96-5.43,2.88-7.2ZM361.76,340.2c1.11,1.56,2.62,2.34,4.53,2.34s3.43-.78,4.55-2.34c1.12-1.56,1.68-3.68,1.68-6.37s-.56-4.81-1.68-6.37c-1.12-1.56-2.63-2.34-4.55-2.34s-3.42.78-4.53,2.34c-1.11,1.56-1.66,3.68-1.66,6.37s.55,4.81,1.66,6.37Z"/>
    <path class="st2" d="M386.15,325.55h-1.24v15.77c.02.47.19.87.53,1.2.33.33.73.5,1.2.5h.35v.27h-8.22v-.27h.35c.65,0,1.15-.28,1.49-.84.14-.25.22-.53.24-.84v-15.02c-.02-.47-.19-.87-.53-1.2-.33-.33-.74-.5-1.2-.5h-.35v-.27h9.28c1.75,0,3.23.38,4.44,1.14.61.38,1.1.91,1.46,1.58.36.68.54,1.56.54,2.65s-.38,2.14-1.14,3.15c-.76,1.01-1.86,1.59-3.3,1.73,1.04.34,1.96,1.14,2.76,2.38,1.95,3.12,3.39,4.98,4.33,5.57.47.29,1.06.44,1.76.46v.27h-2.65c-1.57,0-2.87-.21-3.91-.62-1.04-.42-1.85-1.15-2.45-2.19-.34-.6-1.09-2.14-2.25-4.63-.5-1.1-1.12-1.7-1.84-1.81v-.27h.84c.81,0,1.53-.24,2.15-.73s1.04-1.28,1.26-2.38c.07-.38.11-.68.11-.89,0-1.48-.3-2.55-.89-3.21-.59-.66-1.36-1-2.3-1.01h-.81Z"/>
    <path class="st2" d="M407.82,325.47v15.88c.02.47.19.87.53,1.19.33.32.74.49,1.2.49h.33l.03.27h-8.22v-.27h.35c.45,0,.84-.16,1.18-.49.33-.32.52-.71.55-1.16v-15.91h-3.65c-.83.02-1.49.28-1.97.78-.49.51-.73,1.16-.73,1.98v.32h-.27v-4.71c.74.31,1.8.47,3.19.49h10.9c.56,0,1.17-.05,1.83-.16.66-.11,1.11-.22,1.37-.32v4.71h-.27v-.32c0-1.12-.42-1.91-1.27-2.38-.4-.23-.88-.36-1.43-.38h-3.63Z"/>
    <path class="st2" d="M432.61,325.47v15.88c.02.47.19.87.53,1.19.33.32.74.49,1.2.49h.33l.03.27h-8.22v-.27h.35c.45,0,.84-.16,1.18-.49.33-.32.52-.71.55-1.16v-15.91h-3.65c-.83.02-1.49.28-1.97.78-.49.51-.73,1.16-.73,1.98v.32h-.27v-4.71c.74.31,1.8.47,3.19.49h10.9c.56,0,1.17-.05,1.83-.16.66-.11,1.11-.22,1.37-.32v4.71h-.27v-.32c0-1.12-.42-1.91-1.27-2.38-.4-.23-.88-.36-1.43-.38h-3.63Z"/>
    <path class="st2" d="M448.16,325.55h-1.24v15.77c.02.47.19.87.53,1.2.33.33.73.5,1.2.5h.35v.27h-8.22v-.27h.35c.65,0,1.15-.28,1.49-.84.14-.25.22-.53.24-.84v-15.02c-.02-.47-.19-.87-.53-1.2-.33-.33-.74-.5-1.2-.5h-.35v-.27h9.28c1.75,0,3.23.38,4.44,1.14.61.38,1.1.91,1.46,1.58.36.68.54,1.56.54,2.65s-.38,2.14-1.14,3.15c-.76,1.01-1.86,1.59-3.3,1.73,1.04.34,1.96,1.14,2.76,2.38,1.95,3.12,3.39,4.98,4.33,5.57.47.29,1.06.44,1.76.46v.27h-2.65c-1.57,0-2.87-.21-3.91-.62-1.04-.42-1.85-1.15-2.45-2.19-.34-.6-1.09-2.14-2.25-4.63-.5-1.1-1.12-1.7-1.84-1.81v-.27h.84c.81,0,1.53-.24,2.15-.73s1.04-1.28,1.26-2.38c.07-.38.11-.68.11-.89,0-1.48-.3-2.55-.89-3.21-.59-.66-1.36-1-2.3-1.01h-.81Z"/>
    <path class="st2" d="M479.41,343.03h.24v.27h-8.63v-.27h.24c.4,0,.69-.12.88-.37s.28-.47.28-.69-.04-.43-.13-.65l-1.33-3.33h-6.33l-1.41,3.33c-.09.23-.14.46-.14.66s.1.43.3.68c.2.24.5.37.89.37h.22v.27h-5.79v-.27h.24c.42,0,.83-.13,1.25-.38.41-.25.76-.63,1.03-1.14l6.25-14.15c.85-1.79,1.3-2.97,1.35-3.54h.24l8.04,17.64c.27.52.61.92,1.03,1.18.42.26.84.39,1.27.39ZM465.1,336.86h5.41l-2.62-6.66-2.79,6.66Z"/>
    <path class="st2" d="M490.34,324.36h5.79v.27h-.24c-.42,0-.83.13-1.24.38-.42.25-.76.63-1.03,1.14l-6.41,14.15c-.83,1.79-1.27,2.97-1.33,3.54h-.24l-8.2-17.67c-.27-.5-.61-.89-1.03-1.15-.42-.26-.84-.39-1.27-.39h-.22v-.27h8.6v.27h-.22c-.4,0-.69.12-.88.37-.19.24-.28.47-.28.69s.04.43.11.65l4.6,11.17,4.76-11.17c.09-.23.13-.46.13-.66s-.09-.43-.28-.68c-.19-.24-.48-.37-.88-.37h-.24v-.27Z"/>
    <path class="st2" d="M496.81,343.03c.47,0,.87-.17,1.2-.5.33-.33.51-.73.53-1.2v-15.07c-.04-.47-.17-.81-.41-1.03-.43-.4-.88-.6-1.33-.6h-.35v-.27h10.36c.88,0,1.61-.07,2.19-.2.58-.14.93-.23,1.05-.28v4.73l-.27-.03v-.3c0-1.12-.42-1.91-1.24-2.38-.4-.23-.87-.36-1.41-.38h-4.54v7.87h3.57c.67-.02,1.22-.25,1.65-.69.43-.44.65-.99.65-1.64v-.24h.27v6.25h-.27v-.22c0-.67-.21-1.22-.64-1.65-.42-.43-.96-.66-1.61-.68h-3.62v7.6h3.54c1.32,0,2.42-.38,3.31-1.14.89-.76,1.56-1.83,1.99-3.22h.27l-1.24,5.52h-14.01v-.27h.35Z"/>
    <path class="st2" d="M513.77,343.03c.47,0,.87-.17,1.2-.5.33-.33.51-.73.53-1.2v-14.99c-.02-.47-.19-.87-.53-1.2-.33-.33-.74-.5-1.2-.5h-.35v-.27h8.22l-.03.27h-.32c-.47,0-.88.17-1.22.5-.34.33-.51.73-.51,1.2v15.8h3.54c1.32,0,2.42-.38,3.31-1.14.89-.76,1.56-1.83,1.99-3.22h.27l-1.24,5.52h-14.01v-.27h.35Z"/>
  </g>
</svg>