<?xml version="1.0" encoding="UTF-8"?>
<svg id="Layer_1" xmlns="http://www.w3.org/2000/svg" version="1.1" viewBox="0 0 612.49 431.61">
  <!-- Generator: Adobe Illustrator 29.8.2, SVG Export Plug-In . SVG Version: 2.1.1 Build 3)  -->
  <defs>
    <style>
      .st0 {
        fill: #b18039;
      }
    </style>
  </defs>
  <g>
    <path class="st0" d="M298.07,247.58c.49,0,.92-.18,1.27-.53s.54-.77.56-1.27v-15.79c-.02-.49-.2-.92-.56-1.27s-.77-.53-1.27-.53h-.37v-.28h8.66l-.03.28h-.34c-.49,0-.92.18-1.28.53-.36.35-.54.77-.54,1.27v16.64h3.73c1.39,0,2.55-.4,3.49-1.2.94-.8,1.64-1.93,2.09-3.39h.29l-1.31,5.81h-14.76v-.29h.37Z"/>
    <path class="st0" d="M315.45,247.58c.49,0,.92-.18,1.27-.53s.54-.77.56-1.27v-15.82c-.02-.49-.2-.91-.56-1.25-.35-.34-.77-.51-1.27-.51h-.37v-.28h8.66l-.03.28h-.34c-.49,0-.92.17-1.28.51-.36.34-.54.76-.54,1.25v15.82c0,.49.18.92.54,1.27.36.35.79.53,1.28.53h.34l.03.29h-8.66v-.29h.37Z"/>
    <path class="st0" d="M351.87,247.58h.46v.29h-8.55v-.26h.43c.32-.02.6-.15.83-.4.23-.25.32-.52.29-.83l-1.11-10.34-5.36,9.23c-.7,1.18-1.06,2.23-1.08,3.16h-.29l-7.32-12.31-1.11,10.26c-.04.3.06.58.29.84s.5.38.83.38h.43v.26h-5.96v-.29h.46c.53,0,.99-.16,1.38-.48.39-.32.62-.76.7-1.31l2.37-18.27h.26l8.83,14.53,8.49-14.53h.26l2.42,18.27c.09.55.34.99.73,1.31.39.32.84.48,1.35.48Z"/>
    <path class="st0" d="M356.21,230.31c2.02-1.86,4.75-2.79,8.18-2.79s6.16.93,8.18,2.79c2.02,1.86,3.04,4.39,3.04,7.58s-1.01,5.72-3.04,7.58c-2.02,1.86-4.75,2.79-8.18,2.79s-6.16-.93-8.18-2.79c-2.02-1.86-3.03-4.39-3.03-7.58s1.01-5.72,3.03-7.58ZM359.61,244.6c1.17,1.64,2.76,2.46,4.77,2.46s3.61-.82,4.79-2.46c1.18-1.64,1.77-3.88,1.77-6.71s-.59-5.07-1.77-6.71c-1.18-1.64-2.77-2.46-4.79-2.46s-3.6.82-4.77,2.46c-1.17,1.64-1.75,3.88-1.75,6.71s.58,5.07,1.75,6.71Z"/>
    <path class="st0" d="M398.89,228.2h-.48c-.4,0-.74.13-1.03.38-.28.26-.44.57-.46.95v11.11c0,2.34-.73,4.19-2.19,5.56-1.46,1.37-3.47,2.05-6.01,2.05-3,0-5.3-.67-6.9-2.01s-2.39-3.2-2.39-5.57v-11.06c-.02-.57-.28-.99-.77-1.25-.23-.11-.47-.17-.74-.17h-.46v-.28h8.21v.28h-.46c-.42,0-.77.13-1.05.38s-.44.58-.46.98v10.89c0,2.01.49,3.61,1.48,4.79.99,1.18,2.35,1.77,4.08,1.77s3.1-.56,4.1-1.67,1.52-2.62,1.54-4.52v-11.26c-.04-.55-.29-.95-.77-1.2-.23-.11-.48-.17-.74-.17h-.46v-.28h5.96v.28Z"/>
    <path class="st0" d="M401.19,245.21c0-1.37.29-2.54.88-3.51h.26c-.02.15-.03.3-.03.46,0,1.31.47,2.46,1.41,3.43.94.98,2.23,1.47,3.86,1.47,1.27,0,2.27-.3,2.98-.91.71-.61,1.07-1.38,1.07-2.31,0-.55-.18-1.04-.53-1.48s-.94-.92-1.75-1.45l-4.96-3.28c-1.84-1.23-2.76-2.75-2.76-4.56,0-.19.02-.38.06-.57.11-1.5.7-2.71,1.75-3.62,1.05-.91,2.46-1.37,4.23-1.37,1.04,0,2.34.1,3.88.28h1.79l-.37,4.19h-.29c0-.99-.37-1.78-1.1-2.38s-1.71-.9-2.92-.9c-1.48,0-2.56.46-3.22,1.37-.34.44-.51.87-.51,1.31s.09.81.26,1.11c.27.49.84,1.03,1.74,1.6l5.44,3.53c1.71,1.12,2.57,2.58,2.57,4.39,0,2.01-.69,3.56-2.07,4.63-1.38,1.07-3.21,1.61-5.49,1.61-1.29,0-2.48-.16-3.58-.47-1.09-.31-1.9-.74-2.41-1.27-.13-.36-.2-.8-.2-1.31Z"/>
    <path class="st0" d="M417.64,247.58c.49,0,.92-.18,1.27-.53s.54-.77.56-1.27v-15.82c-.02-.49-.2-.91-.56-1.25-.35-.34-.77-.51-1.27-.51h-.37v-.28h8.66l-.03.28h-.34c-.49,0-.92.17-1.28.51-.36.34-.54.76-.54,1.25v15.82c0,.49.18.92.54,1.27.36.35.79.53,1.28.53h.34l.03.29h-8.66v-.29h.37Z"/>
    <path class="st0" d="M450.35,228.2c-.67,0-1.17.29-1.51.85-.15.25-.24.53-.26.85v14.7c0,1.27.08,2.35.26,3.22l.09.43h-.26l-14.39-13.71v11.31c0,.48.17.88.51,1.21.34.33.75.5,1.22.5h.54v.29h-8.63v-.29h.51c.49,0,.91-.17,1.25-.5.34-.33.51-.75.51-1.24v-14.79c0-1.25-.09-2.3-.26-3.13l-.06-.43h.26l14.39,13.71v-11.26c-.02-.49-.2-.91-.54-1.24-.34-.33-.75-.5-1.23-.5h-.51v-.28h8.63v.28h-.54Z"/>
    <path class="st0" d="M452.83,247.58c.49,0,.92-.18,1.27-.53s.54-.77.56-1.27v-15.87c-.04-.49-.18-.85-.43-1.08-.46-.42-.92-.63-1.4-.63h-.37v-.28h10.91c.93,0,1.7-.07,2.31-.21.61-.14.98-.24,1.11-.3v4.99l-.29-.03v-.31c0-1.18-.44-2.01-1.31-2.51-.42-.25-.91-.38-1.48-.4h-4.79v8.29h3.76c.7-.02,1.28-.26,1.74-.73.46-.46.68-1.04.68-1.72v-.26h.29v6.58h-.29v-.23c0-.7-.22-1.28-.67-1.74-.45-.46-1.01-.69-1.7-.71h-3.82v8.01h3.73c1.39,0,2.55-.4,3.49-1.2.94-.8,1.64-1.93,2.09-3.39h.29l-1.31,5.81h-14.76v-.29h.37Z"/>
    <path class="st0" d="M327.79,282.06c-2.18.17-3.6.21-4.25.11-1.52-.27-2.73-.66-3.62-1.17-1.48.89-3.34,1.34-5.58,1.34-3.25,0-5.82-.67-7.72-2.02-.65-.47-1.18-1.09-1.6-1.85-.42-.76-.63-1.56-.63-2.39s.12-1.55.37-2.15c.25-.6.59-1.1,1.03-1.5.8-.76,1.73-1.32,2.79-1.68-.84-1.31-1.25-2.57-1.25-3.79s.33-2.22,1-3.02c1.27-1.48,3.24-2.22,5.9-2.22,1.2,0,2.32.18,3.36.53,1.04.35,1.8.85,2.28,1.5l-1.03,4.07h-.26c-.02-1.41-.32-2.57-.91-3.5-.59-.93-1.42-1.4-2.51-1.4s-1.92.31-2.52.94c-.6.63-.9,1.44-.9,2.45s.37,1.99,1.1,2.94c.73.95,2.15,2.34,4.25,4.17,2.1,1.83,3.38,2.94,3.83,3.32.25-.8.37-1.6.37-2.39s-.19-1.61-.58-2.42c-.39-.82-.95-1.23-1.7-1.23h-.46v-.29h6.67v.29h-.43c-.38,0-.64.12-.77.37-.13.25-.2.62-.2,1.11v.48c0,2.17-.41,4.01-1.22,5.53,1.21,1.04,2.21,1.85,2.99,2.42.78.57,1.51.95,2.19,1.14v.31ZM315.39,281.14c1.23,0,2.32-.34,3.25-1.03-1.56-1.22-3.24-2.61-5.06-4.17s-3.12-2.83-3.92-3.78c-.51.8-.77,1.73-.77,2.79,0,1.99.65,3.52,1.95,4.59,1.3,1.06,2.82,1.6,4.54,1.6Z"/>
    <path class="st0" d="M354.78,281.77h.26v.29h-9.09v-.29h.26c.42,0,.73-.13.93-.38.2-.26.3-.5.3-.73s-.05-.46-.14-.68l-1.4-3.5h-6.67l-1.48,3.5c-.09.25-.14.48-.14.7s.1.46.31.71c.21.26.52.38.94.38h.23v.29h-6.1v-.29h.26c.44,0,.87-.13,1.31-.4.44-.27.8-.66,1.08-1.2l6.58-14.9c.89-1.88,1.37-3.12,1.42-3.73h.26l8.46,18.58c.29.55.65.96,1.08,1.24.44.28.88.41,1.34.41ZM339.7,275.27h5.7l-2.76-7.01-2.93,7.01Z"/>
    <path class="st0" d="M355.72,281.77c.49,0,.92-.18,1.27-.53s.54-.77.56-1.27v-15.82c-.02-.49-.2-.91-.56-1.25-.35-.34-.77-.51-1.27-.51h-.37v-.28h8.66l-.03.28h-.34c-.49,0-.92.17-1.28.51-.36.34-.54.76-.54,1.25v15.82c0,.49.18.92.54,1.27.36.35.79.53,1.28.53h.34l.03.29h-8.66v-.29h.37Z"/>
    <path class="st0" d="M374.21,263.36h-1.31v16.61c.02.49.2.92.56,1.27s.77.53,1.27.53h.37v.29h-8.66v-.29h.37c.68,0,1.21-.29,1.57-.88.15-.27.24-.56.26-.88v-15.81c-.02-.49-.2-.92-.56-1.27s-.77-.53-1.27-.53h-.37v-.28h9.77c1.84,0,3.4.4,4.67,1.2.65.4,1.16.95,1.54,1.67.38.71.57,1.64.57,2.79s-.4,2.26-1.2,3.32-1.96,1.67-3.48,1.82c1.1.36,2.07,1.2,2.91,2.51,2.05,3.29,3.57,5.24,4.56,5.87.49.3,1.11.47,1.85.48v.29h-2.79c-1.65,0-3.03-.22-4.12-.66-1.09-.44-1.95-1.21-2.58-2.31-.36-.63-1.15-2.25-2.37-4.87-.53-1.16-1.18-1.79-1.94-1.91v-.28h.88c.86,0,1.61-.26,2.27-.77.66-.51,1.1-1.35,1.33-2.51.08-.4.11-.71.11-.94,0-1.56-.31-2.68-.94-3.38-.63-.69-1.43-1.05-2.42-1.07h-.85Z"/>
    <path class="st0" d="M403.96,267.81c0,.87-.17,1.7-.51,2.48-.65,1.5-1.84,2.53-3.59,3.08-.51.17-.99.26-1.42.26-1.35,0-2.56-.35-3.62-1.05v-.28c1.42.04,2.57-.43,3.45-1.4.76-.84,1.14-1.93,1.14-3.28s-.33-2.43-.98-3.18-1.54-1.13-2.66-1.13h-1.91v16.67c0,.49.18.92.54,1.27s.79.53,1.28.53h.37v.29h-8.66v-.29h.37c.49,0,.92-.18,1.27-.53s.54-.77.56-1.27v-15.93c0-.47-.18-.87-.54-1.18-.36-.31-.79-.47-1.28-.47h-.37v-.28h9.52c2.32,0,4.07.49,5.24,1.48,1.22,1.04,1.82,2.45,1.82,4.22Z"/>
    <path class="st0" d="M409.5,264.5c2.02-1.86,4.75-2.79,8.18-2.79s6.16.93,8.18,2.79c2.02,1.86,3.04,4.39,3.04,7.58s-1.01,5.72-3.04,7.58c-2.02,1.86-4.75,2.79-8.18,2.79s-6.16-.93-8.18-2.79c-2.02-1.86-3.03-4.39-3.03-7.58s1.01-5.72,3.03-7.58ZM412.89,278.79c1.17,1.64,2.76,2.46,4.77,2.46s3.61-.82,4.79-2.46c1.18-1.64,1.77-3.88,1.77-6.71s-.59-5.07-1.77-6.71c-1.18-1.64-2.77-2.46-4.79-2.46s-3.6.82-4.77,2.46c-1.17,1.64-1.75,3.88-1.75,6.71s.58,5.07,1.75,6.71Z"/>
    <path class="st0" d="M438.58,263.36h-1.31v16.61c.02.49.2.92.56,1.27s.77.53,1.27.53h.37v.29h-8.66v-.29h.37c.68,0,1.21-.29,1.57-.88.15-.27.24-.56.26-.88v-15.81c-.02-.49-.2-.92-.56-1.27s-.77-.53-1.27-.53h-.37v-.28h9.77c1.84,0,3.4.4,4.67,1.2.65.4,1.16.95,1.54,1.67.38.71.57,1.64.57,2.79s-.4,2.26-1.2,3.32-1.96,1.67-3.48,1.82c1.1.36,2.07,1.2,2.91,2.51,2.05,3.29,3.57,5.24,4.56,5.87.49.3,1.11.47,1.85.48v.29h-2.79c-1.65,0-3.03-.22-4.12-.66-1.09-.44-1.95-1.21-2.58-2.31-.36-.63-1.15-2.25-2.37-4.87-.53-1.16-1.18-1.79-1.94-1.91v-.28h.88c.86,0,1.61-.26,2.27-.77.66-.51,1.1-1.35,1.33-2.51.08-.4.11-.71.11-.94,0-1.56-.31-2.68-.94-3.38-.63-.69-1.43-1.05-2.42-1.07h-.85Z"/>
    <path class="st0" d="M461.4,263.28v16.73c.02.49.2.91.56,1.25s.77.51,1.27.51h.34l.03.29h-8.66v-.29h.37c.47,0,.89-.17,1.24-.51s.55-.75.58-1.23v-16.76h-3.85c-.87.02-1.57.29-2.08.83s-.77,1.23-.77,2.08v.34h-.28v-4.96c.78.32,1.9.49,3.36.51h11.48c.59,0,1.23-.06,1.92-.17.69-.11,1.17-.23,1.44-.34v4.96h-.29v-.34c0-1.18-.45-2.01-1.34-2.51-.42-.25-.92-.38-1.51-.4h-3.82Z"/>
    <path class="st0" d="M487.51,263.28v16.73c.02.49.2.91.56,1.25s.77.51,1.27.51h.34l.03.29h-8.66v-.29h.37c.47,0,.89-.17,1.24-.51s.55-.75.58-1.23v-16.76h-3.85c-.87.02-1.57.29-2.08.83s-.77,1.23-.77,2.08v.34h-.28v-4.96c.78.32,1.9.49,3.36.51h11.48c.59,0,1.23-.06,1.92-.17.69-.11,1.17-.23,1.44-.34v4.96h-.29v-.34c0-1.18-.45-2.01-1.34-2.51-.42-.25-.92-.38-1.51-.4h-3.82Z"/>
    <path class="st0" d="M503.89,263.36h-1.31v16.61c.02.49.2.92.56,1.27s.77.53,1.27.53h.37v.29h-8.66v-.29h.37c.68,0,1.21-.29,1.57-.88.15-.27.24-.56.26-.88v-15.81c-.02-.49-.2-.92-.56-1.27s-.77-.53-1.27-.53h-.37v-.28h9.77c1.84,0,3.4.4,4.67,1.2.65.4,1.16.95,1.54,1.67.38.71.57,1.64.57,2.79s-.4,2.26-1.2,3.32-1.96,1.67-3.48,1.82c1.1.36,2.07,1.2,2.91,2.51,2.05,3.29,3.57,5.24,4.56,5.87.49.3,1.11.47,1.85.48v.29h-2.79c-1.65,0-3.03-.22-4.12-.66-1.09-.44-1.95-1.21-2.58-2.31-.36-.63-1.15-2.25-2.37-4.87-.53-1.16-1.18-1.79-1.94-1.91v-.28h.88c.86,0,1.61-.26,2.27-.77.66-.51,1.1-1.35,1.33-2.51.08-.4.11-.71.11-.94,0-1.56-.31-2.68-.94-3.38-.63-.69-1.43-1.05-2.42-1.07h-.85Z"/>
    <path class="st0" d="M536.8,281.77h.26v.29h-9.09v-.29h.26c.42,0,.73-.13.93-.38.2-.26.3-.5.3-.73s-.05-.46-.14-.68l-1.4-3.5h-6.67l-1.48,3.5c-.09.25-.14.48-.14.7s.1.46.31.71c.21.26.52.38.94.38h.23v.29h-6.1v-.29h.26c.44,0,.87-.13,1.31-.4.44-.27.8-.66,1.08-1.2l6.58-14.9c.89-1.88,1.37-3.12,1.42-3.73h.26l8.46,18.58c.29.55.65.96,1.08,1.24.44.28.88.41,1.34.41ZM521.73,275.27h5.7l-2.76-7.01-2.93,7.01Z"/>
    <path class="st0" d="M548.32,262.11h6.1v.28h-.26c-.44,0-.87.13-1.31.4-.44.27-.8.67-1.08,1.2l-6.75,14.9c-.87,1.88-1.34,3.12-1.4,3.73h-.26l-8.63-18.61c-.29-.53-.65-.94-1.08-1.21-.44-.27-.88-.41-1.34-.41h-.23v-.28h9.06v.28h-.23c-.42,0-.73.13-.93.38-.2.26-.3.5-.3.73s.04.46.11.68l4.84,11.77,5.02-11.77c.09-.25.14-.48.14-.7s-.1-.46-.3-.71c-.2-.26-.51-.38-.93-.38h-.26v-.28Z"/>
    <path class="st0" d="M555.13,281.77c.49,0,.92-.18,1.27-.53s.54-.77.56-1.27v-15.87c-.04-.49-.18-.85-.43-1.08-.46-.42-.92-.63-1.4-.63h-.37v-.28h10.91c.93,0,1.7-.07,2.31-.21.61-.14.98-.24,1.11-.3v4.99l-.29-.03v-.31c0-1.18-.44-2.01-1.31-2.51-.42-.25-.91-.38-1.48-.4h-4.79v8.29h3.76c.7-.02,1.28-.26,1.74-.73.46-.46.68-1.04.68-1.72v-.26h.29v6.58h-.29v-.23c0-.7-.22-1.28-.67-1.74-.45-.46-1.01-.69-1.7-.71h-3.82v8.01h3.73c1.39,0,2.55-.4,3.49-1.2.94-.8,1.64-1.93,2.09-3.39h.29l-1.31,5.81h-14.76v-.29h.37Z"/>
    <path class="st0" d="M572.99,281.77c.49,0,.92-.18,1.27-.53s.54-.77.56-1.27v-15.79c-.02-.49-.2-.92-.56-1.27s-.77-.53-1.27-.53h-.37v-.28h8.66l-.03.28h-.34c-.49,0-.92.18-1.28.53-.36.35-.54.77-.54,1.27v16.64h3.73c1.39,0,2.55-.4,3.49-1.2.94-.8,1.64-1.93,2.09-3.39h.29l-1.31,5.81h-14.76v-.29h.37Z"/>
  </g>
  <g>
    <path class="st0" d="M289.81,181.59c-2.49,4.32-6.38,6.48-11.7,6.48-2.63,0-5.24-.87-7.83-2.61v-.6c4.97,0,8.15-2.53,9.54-7.6.3-1.14.45-2.06.45-2.76,0-3.43-.82-5.96-2.46-7.6-1.64-1.64-3.83-2.46-6.56-2.46h-3.35v37.11c.05,1.59.72,2.73,2.01,3.43.6.35,1.27.52,2.01.52h.89v.75h-20.57v-.75h.89c1.09,0,2.02-.37,2.79-1.12.77-.75,1.16-1.66,1.16-2.76v-35.4c0-1.14-.39-2.09-1.16-2.83-.77-.75-1.73-1.12-2.87-1.12h-.89v-.75h22.06c5.71,0,9.99,1.14,12.82,3.43,3.03,2.34,4.55,5.54,4.55,9.61,0,2.58-.6,4.92-1.79,7.01Z"/>
    <path class="st0" d="M314.33,164.6h-2.38v36.96c0,1.19.41,2.15,1.23,2.87.82.72,1.75,1.08,2.79,1.08h.82v.75h-20.49v-.75h.89c1.09,0,2.02-.37,2.79-1.12.77-.75,1.16-1.66,1.16-2.76v-35.47c0-1.09-.39-2.01-1.16-2.76-.77-.75-1.68-1.12-2.72-1.12h-.97v-.75h22.88c4.47,0,8.22.87,11.25,2.61,3.38,1.94,5.07,5.14,5.07,9.61,0,2.88-.87,5.48-2.61,7.79-1.74,2.31-4.32,3.71-7.75,4.21,1.34.45,2.67,1.29,3.99,2.53,1.32,1.24,2.37,2.51,3.17,3.8,1.59,2.83,3.25,5.43,4.99,7.79,1.74,2.36,3.14,3.89,4.21,4.58,1.07.7,2.37,1.04,3.91,1.04v.75h-6.26c-4.12,0-7.29-.5-9.5-1.49-2.21-.99-4.19-2.88-5.92-5.66-2.68-4.27-4.35-7.65-4.99-10.13-.6-1.49-1.3-2.61-2.12-3.35-.82-.75-1.6-1.17-2.35-1.27v-.6h1.86c4.22-.05,6.81-2.53,7.75-7.45.2-.75.3-1.39.3-1.94s-.03-1.3-.07-2.27c-.05-.97-.36-2.06-.93-3.28-.57-1.22-1.3-2.1-2.2-2.65-1.54-.94-3.13-1.44-4.77-1.49-.55-.05-1.17-.07-1.86-.07Z"/>
    <path class="st0" d="M379.83,206.25h-35.1v-.75h.89c1.14,0,2.1-.37,2.87-1.12.77-.75,1.18-1.66,1.23-2.76v-35.47c-.05-1.09-.46-2.01-1.23-2.76-.77-.75-1.73-1.12-2.87-1.12h-.89v-.75h26.23c1.34,0,2.81-.12,4.4-.37,1.59-.25,2.71-.5,3.35-.75v11.85h-.75v-.67c0-2.19-.6-3.9-1.79-5.14-1.19-1.24-2.86-1.89-4.99-1.94h-10.73v18.11h8.5c1.69-.05,3.05-.62,4.1-1.71,1.04-1.09,1.56-2.48,1.56-4.17v-.52h.75v15.8h-.75v-.52c0-2.33-.87-4.02-2.61-5.07-.89-.55-1.89-.82-2.98-.82h-8.57v17.66h8.94c3.08-.05,5.7-1.01,7.86-2.87,2.16-1.86,3.74-4.48,4.73-7.86h.67l-2.83,13.71Z"/>
    <path class="st0" d="M448.17,205.51h1.04v.75h-20.72v-.75h1.04c.94,0,1.63-.32,2.05-.97.42-.65.58-1.32.48-2.01l-2.91-21.31-11.85,18.85c-1.79,2.83-2.68,5.37-2.68,7.6h-.67l-17.21-26.08-2.53,20.94c-.1.7.07,1.37.52,2.01.45.65,1.12.97,2.01.97h1.04v.75h-14.16v-.75h1.04c1.24,0,2.32-.36,3.24-1.08.92-.72,1.45-1.7,1.6-2.94l5.81-40.91h.6l21.09,31.52,19.75-31.52h.67l5.96,41.29c.25,1.14.82,2.04,1.71,2.68.89.65,1.91.97,3.05.97Z"/>
    <path class="st0" d="M451,205.51h.89c1.19,0,2.21-.38,3.06-1.16.84-.77,1.27-1.7,1.27-2.79v-35.32c0-1.09-.42-2.02-1.27-2.79-.85-.77-1.86-1.15-3.06-1.15h-.89v-.75h21.16v.75h-.89c-1.14,0-2.14.37-2.98,1.12-.85.75-1.29,1.67-1.34,2.76v35.4c.05,1.14.5,2.09,1.34,2.83.84.75,1.84,1.12,2.98,1.12h.89v.75h-21.16v-.75Z"/>
    <path class="st0" d="M511.88,206.25h-35.1v-.75h.89c1.14,0,2.1-.37,2.87-1.12.77-.75,1.18-1.66,1.23-2.76v-35.47c-.05-1.09-.46-2.01-1.23-2.76-.77-.75-1.73-1.12-2.87-1.12h-.89v-.75h26.23c1.34,0,2.81-.12,4.4-.37,1.59-.25,2.71-.5,3.35-.75v11.85h-.75v-.67c0-2.19-.6-3.9-1.79-5.14-1.19-1.24-2.86-1.89-4.99-1.94h-10.73v18.11h8.5c1.69-.05,3.05-.62,4.1-1.71,1.04-1.09,1.56-2.48,1.56-4.17v-.52h.75v15.8h-.75v-.52c0-2.33-.87-4.02-2.61-5.07-.89-.55-1.89-.82-2.98-.82h-8.57v17.66h8.94c3.08-.05,5.7-1.01,7.86-2.87,2.16-1.86,3.74-4.48,4.73-7.86h.67l-2.83,13.71Z"/>
    <path class="st0" d="M537,164.6h-2.38v36.96c0,1.19.41,2.15,1.23,2.87.82.72,1.75,1.08,2.79,1.08h.82v.75h-20.49v-.75h.89c1.09,0,2.02-.37,2.79-1.12.77-.75,1.16-1.66,1.16-2.76v-35.47c0-1.09-.39-2.01-1.16-2.76-.77-.75-1.68-1.12-2.72-1.12h-.97v-.75h22.88c4.47,0,8.22.87,11.25,2.61,3.38,1.94,5.07,5.14,5.07,9.61,0,2.88-.87,5.48-2.61,7.79-1.74,2.31-4.32,3.71-7.75,4.21,1.34.45,2.67,1.29,3.99,2.53,1.32,1.24,2.37,2.51,3.17,3.8,1.59,2.83,3.25,5.43,4.99,7.79,1.74,2.36,3.14,3.89,4.21,4.58,1.07.7,2.37,1.04,3.91,1.04v.75h-6.26c-4.12,0-7.29-.5-9.5-1.49-2.21-.99-4.19-2.88-5.92-5.66-2.68-4.27-4.35-7.65-4.99-10.13-.6-1.49-1.3-2.61-2.12-3.35-.82-.75-1.6-1.17-2.35-1.27v-.6h1.86c4.22-.05,6.81-2.53,7.75-7.45.2-.75.3-1.39.3-1.94s-.03-1.3-.07-2.27c-.05-.97-.36-2.06-.93-3.28-.57-1.22-1.3-2.1-2.2-2.65-1.54-.94-3.13-1.44-4.77-1.49-.55-.05-1.17-.07-1.86-.07Z"/>
  </g>
  <path class="st0" d="M82.48,138.45s18.39,1.92,26.82-3.07l-13.41,48.27s24.24,4.69,37.07-11.79c15.87-20.37-.34-50-26.15-49.02-4.14.16-8.79.72-13.99,1.81,0,0,16.88-15.71,47.9-4.21,0,0,.8.33,2.08,1.02,18.33,9.93,22.62,34.42,9.01,50.2-9.97,11.56-28.98,26.41-58.22,20.8l-11.11,50.19s19.54,4.98,28.35,0l.38,7.66s-4.6,5.75-22.99,2.3c0,0-25.29-3.93-45.98,1.1v-9.15s16.86,4.21,26.05-24.14l18.77-73.94-6.9-2.3,2.3-5.75Z"/>
  <path class="st0" d="M206.23,179.63s-4.2-26.51-29.31-17.24c0,0-29.62,8.38-44.22,67.03-.39,1.56-.68,3.15-.91,4.74-1.01,7.03-4.55,28.29-10.62,29.56,0,0-27.11-3.22-40.44,8.08-5.03,4.26-7.24,11.14-4.94,17.31,2.08,5.57,7.83,11.13,23.15,7.94,27.59-5.75,77.39-6.94,96.17.94,0,0-24.14-18.94-64.75-15.49l2.3-5.36-13.41-1.15s-9.36,9.36-19.45,13.09-15.79-10.84-6.28-15.03c4.03-1.77,10.02-2.8,18.84-2.28,0,0,84.29,15.71,110.34-12.26l3.07,7.66,4.6-9.58,15.33-9.58,3.83,26.05,5.36-8.05,2.68-23.37,17-10.98c1.38-.89,2.05-2.65,1.4-4.16-.45-1.02-1.49-1.96-3.72-2.24s-4.5.23-6.49,1.29l-14.31,7.65-23.75-8.43-6.13,1.15,18.01,14.94-13.41,8.05-9.58-1.92,3.45,5.7.86,1.77s-4.44,7.69-23.86,12.72c-10.54,2.73-21.49,3.47-32.33,2.44-8.25-.78-19.11-1.72-24.56-1.8,0,0,16.67-97.27,45.98-100.72,0,0,9.2-2.87,20.11,11.49Z"/>
</svg>